<svg id="Group_25" data-name="Group 25" xmlns="http://www.w3.org/2000/svg" xmlns:xlink="http://www.w3.org/1999/xlink" width="52" height="49" viewBox="0 0 52 49">
  <defs>
    <clipPath id="clip-path">
      <path id="Clip_2" data-name="Clip 2" d="M0,0H52V49H0Z" fill="none"/>
    </clipPath>
  </defs>
  <g id="Group_3" data-name="Group 3">
    <path id="Clip_2-2" data-name="Clip 2" d="M0,0H52V49H0Z" fill="none"/>
    <g id="Group_3-2" data-name="Group 3" clip-path="url(#clip-path)">
      <path id="Fill_1" data-name="Fill 1" d="M48.9,12.419,49.689,14A22.079,22.079,0,0,1,39.418,43.724l-6.2,2.994A22.638,22.638,0,0,1,3.1,36.582L2.312,35A22.078,22.078,0,0,1,12.582,5.276l6.2-2.994A22.637,22.637,0,0,1,48.9,12.419" transform="translate(0 0)" fill="#fa5750"/>
      <path id="Fill_21" data-name="Fill 21" d="M18.749,19.168a3.061,3.061,0,0,0-1.775-1.547,3.11,3.11,0,0,0-2.363.144L8.863,20.537v1.59l6.383-3.078a1.655,1.655,0,0,1,1.257-.076,1.617,1.617,0,0,1,.187,3l-9.731,4.7L6.969,5.448A5.49,5.49,0,0,0,1.448,0,5.558,5.558,0,0,0,0,.193,6.03,6.03,0,0,1,4.214,2.3,4.565,4.565,0,0,1,5.52,5.447L5.511,27.819a.712.712,0,0,0,.341.607.731.731,0,0,0,.7.036l10.774-5.208a3.039,3.039,0,0,0,1.421-4.085" transform="translate(19.512 7.478)" fill="#fff"/>
      <path id="Fill_23" data-name="Fill 23" d="M25.618,18.375a5.319,5.319,0,0,0-.734-1.108,6.938,6.938,0,0,1-.126,4.5c-1.014,1.918-1.862,2.288-2.268,2.483L12.012,29.31h0a4,4,0,0,1-3.868-.19l-.08-.051a3.907,3.907,0,0,1-1.779-3.506c0-1.425,0-22.461,0-22.461A3.121,3.121,0,0,0,3.409.014C3.322.007,3.233,0,3.143,0A3.143,3.143,0,0,0,.163,2.124,3.038,3.038,0,0,0,0,3.1V22.785a5.456,5.456,0,0,0,2.431,4.7l.109.069a5.539,5.539,0,0,0,.624.328,7.617,7.617,0,0,1-.225-1.8,4.052,4.052,0,0,1-1.49-3.3V3.329a3.97,3.97,0,0,1,.107-.807A1.7,1.7,0,0,1,4.838,3.1s0,21.036,0,22.461a5.318,5.318,0,0,0,2.431,4.7l.109.069a5.447,5.447,0,0,0,5.272.263h0l10.479-5.061a5.326,5.326,0,0,0,2.491-7.158" transform="translate(15.444 9.474)" fill="#fff"/>
    </g>
  </g>
</svg>